<?xml version="1.0" standalone="no"?>
<!DOCTYPE svg PUBLIC "-//W3C//DTD SVG 20010904//EN"
 "http://www.w3.org/TR/2001/REC-SVG-20010904/DTD/svg10.dtd">
<svg version="1.0" xmlns="http://www.w3.org/2000/svg"
 width="700.000000pt" height="700.000000pt" viewBox="0 0 700.000000 700.000000"
 preserveAspectRatio="xMidYMid meet">
<metadata>
Created by potrace 1.14, written by Peter Selinger 2001-2017
</metadata>
<g transform="translate(0.000000,700.000000) scale(0.100000,-0.100000)"
fill="#000000" stroke="none">
<path d="M4432 6292 c-12 -8 -42 -59 -76 -128 -8 -17 -26 -38 -39 -47 -14 -9
-28 -28 -31 -43 -4 -15 -16 -39 -27 -53 -60 -78 -84 -120 -93 -163 -3 -15 -14
-34 -23 -43 -22 -22 -80 -119 -88 -148 -4 -12 -20 -43 -36 -68 -16 -25 -29
-51 -29 -57 0 -6 -11 -24 -25 -40 -14 -17 -32 -49 -40 -73 -9 -24 -22 -50 -29
-59 -8 -8 -19 -33 -25 -54 -5 -21 -20 -49 -32 -62 -12 -12 -30 -53 -40 -90
-10 -37 -25 -74 -32 -83 -8 -9 -19 -41 -25 -72 -6 -31 -22 -73 -36 -94 -26
-38 -26 -38 -26 -254 0 -209 1 -219 24 -267 13 -27 34 -69 45 -94 12 -25 32
-62 45 -84 26 -42 215 -236 230 -236 5 0 25 -12 44 -26 19 -15 54 -32 78 -40
24 -7 57 -23 74 -36 27 -20 49 -24 148 -31 145 -9 134 -9 269 2 88 7 118 13
142 30 16 12 47 28 68 35 21 7 56 25 77 40 21 14 44 26 49 26 11 0 36 22 117
104 68 69 96 107 109 148 7 21 22 44 33 52 14 10 24 32 29 67 5 28 20 68 34
88 24 36 25 41 25 217 0 177 0 180 -29 237 -16 32 -32 79 -36 105 -4 25 -15
57 -26 71 -11 13 -22 42 -26 63 -3 22 -16 54 -28 72 -12 18 -28 49 -34 69 -7
20 -20 46 -30 59 -9 13 -25 44 -35 70 -9 25 -24 52 -32 58 -7 7 -14 17 -14 23
0 20 -90 194 -109 212 -11 9 -23 30 -26 46 -4 15 -20 45 -36 65 -16 20 -29 40
-29 44 0 11 -67 121 -89 144 -10 12 -24 37 -30 57 -7 20 -21 45 -31 54 -11 10
-20 24 -20 31 0 7 -11 26 -25 42 -14 17 -32 47 -40 66 -9 22 -26 41 -41 46
-31 12 -104 13 -122 2z m111 -303 c19 -25 40 -62 46 -81 6 -20 20 -43 30 -53
11 -9 25 -31 32 -48 7 -18 22 -43 34 -57 13 -14 28 -41 34 -61 7 -20 21 -45
31 -54 11 -10 20 -24 20 -30 0 -7 12 -30 26 -51 15 -21 31 -52 37 -69 6 -16
20 -42 33 -57 12 -15 26 -42 29 -60 4 -18 18 -45 30 -60 13 -15 27 -42 30 -60
4 -18 18 -45 30 -60 13 -15 26 -42 30 -60 4 -18 18 -52 31 -75 13 -23 29 -65
34 -93 5 -27 20 -64 32 -81 21 -29 23 -42 26 -204 l4 -173 -38 -83 c-20 -46
-58 -111 -84 -144 -26 -33 -52 -70 -59 -83 -6 -12 -28 -30 -49 -40 -60 -31
-136 -74 -152 -88 -9 -7 -46 -18 -84 -24 -38 -6 -78 -16 -89 -21 -33 -18 -268
5 -318 31 -13 7 -31 18 -39 25 -8 6 -37 20 -65 30 -65 24 -230 186 -240 237
-4 18 -18 51 -33 73 -18 29 -27 60 -33 115 -4 41 -12 90 -18 109 -8 26 -7 40
4 62 9 17 15 56 15 100 0 60 5 80 29 123 16 28 31 66 35 84 3 19 17 47 31 64
15 18 25 42 25 61 0 19 13 50 30 76 17 24 30 51 30 61 0 9 11 31 25 50 14 19
30 51 35 71 6 20 21 44 35 53 17 11 27 29 31 57 4 22 17 51 29 62 12 12 28 38
35 57 7 19 19 42 25 50 6 8 31 51 55 95 23 44 55 94 70 110 15 17 31 41 35 55
6 21 85 114 91 107 1 -1 17 -23 37 -48z"/>
<path d="M4704 4733 c-37 -49 -199 -213 -210 -213 -5 0 -26 -16 -46 -35 -32
-28 -38 -41 -38 -73 0 -57 25 -76 94 -70 44 4 62 11 95 39 22 19 57 47 78 64
106 83 192 209 177 259 -15 51 -33 66 -78 66 -39 0 -47 -4 -72 -37z"/>
<path d="M2580 5453 c-30 -6 -120 -91 -120 -114 0 -9 -13 -33 -30 -54 -16 -21
-30 -42 -30 -48 0 -5 -13 -25 -30 -44 -16 -18 -30 -39 -30 -46 0 -7 -19 -41
-42 -76 -24 -35 -51 -75 -60 -90 -10 -14 -18 -32 -18 -40 0 -7 -12 -28 -27
-46 -16 -17 -37 -47 -48 -66 -63 -105 -87 -149 -106 -191 -12 -27 -26 -48 -31
-48 -5 0 -20 -24 -34 -52 -39 -82 -79 -153 -102 -183 -12 -15 -22 -33 -22 -39
0 -7 -11 -27 -24 -45 -14 -19 -28 -46 -31 -61 -3 -15 -17 -38 -30 -50 -14 -13
-28 -39 -31 -59 -4 -20 -20 -51 -35 -69 -16 -18 -29 -39 -29 -46 0 -7 -11 -29
-24 -48 -13 -20 -29 -51 -35 -71 -7 -20 -20 -46 -31 -59 -10 -13 -23 -42 -29
-65 -6 -23 -16 -45 -21 -48 -14 -8 -98 -186 -105 -221 -3 -17 -17 -46 -30 -64
-13 -18 -27 -46 -31 -63 -3 -16 -17 -53 -30 -81 -13 -28 -24 -65 -24 -82 0
-17 -8 -42 -19 -55 -31 -41 -41 -65 -50 -133 -6 -41 -18 -78 -33 -98 -23 -32
-23 -38 -26 -313 l-3 -281 29 -54 c16 -30 33 -75 37 -100 4 -25 16 -62 27 -84
11 -21 26 -58 33 -81 7 -24 24 -58 39 -77 14 -19 26 -38 26 -42 0 -5 17 -36
38 -69 71 -117 409 -437 462 -437 4 0 25 -13 47 -29 22 -16 50 -32 64 -36 13
-4 53 -20 89 -35 36 -16 91 -31 122 -35 41 -5 63 -14 79 -31 l22 -24 289 0
c269 0 291 1 325 20 21 11 45 20 53 20 37 0 137 33 157 52 12 11 43 24 69 29
27 5 59 20 74 33 14 13 35 27 47 31 85 25 318 227 398 344 17 25 42 57 58 72
30 30 136 230 169 319 11 30 27 73 35 95 8 22 17 74 18 115 2 41 8 89 13 105
6 17 18 69 27 117 14 79 15 90 1 117 -9 17 -16 45 -16 63 -1 18 -7 60 -15 93
-8 33 -15 74 -15 90 0 17 -7 44 -16 60 -8 17 -26 72 -39 124 -13 51 -30 101
-38 110 -8 9 -18 36 -22 61 -4 25 -17 61 -30 80 -12 19 -28 58 -35 87 -6 29
-18 57 -25 63 -8 6 -22 33 -32 58 -9 26 -28 62 -40 81 -13 19 -23 47 -23 62 0
17 -12 42 -30 62 -17 20 -30 46 -30 60 0 15 -13 41 -29 59 -15 18 -31 49 -35
69 -3 20 -17 46 -31 59 -13 12 -27 35 -30 50 -3 15 -17 42 -31 61 -13 18 -24
38 -24 45 0 6 -10 24 -22 40 -13 15 -47 76 -77 134 -30 58 -66 128 -80 155
-14 28 -35 58 -47 67 -12 10 -25 33 -28 51 -3 19 -17 44 -31 57 -14 13 -25 29
-25 35 0 7 -13 29 -30 50 -16 21 -30 46 -30 57 0 10 -13 31 -29 46 -16 15 -33
41 -37 57 -4 17 -16 41 -26 55 -35 44 -88 134 -88 147 0 7 -14 29 -32 48 -34
40 -58 78 -87 142 -11 23 -28 46 -39 52 -11 6 -22 21 -26 34 -6 24 -79 98 -94
96 -4 -1 -18 -4 -32 -6z m65 -310 c14 -27 41 -73 60 -103 19 -30 43 -71 53
-90 11 -19 30 -44 42 -55 12 -10 42 -58 67 -105 25 -47 52 -92 58 -100 7 -8
18 -32 24 -52 7 -20 23 -43 36 -52 13 -8 26 -29 30 -45 3 -17 18 -46 33 -65
46 -60 71 -105 81 -144 6 -21 22 -53 36 -72 14 -19 25 -40 25 -47 0 -7 13 -27
29 -45 15 -18 34 -50 40 -70 7 -20 18 -42 26 -48 8 -6 21 -33 30 -60 9 -26 24
-55 34 -64 10 -9 33 -47 50 -84 18 -37 41 -83 51 -102 42 -79 101 -206 107
-230 3 -14 17 -42 30 -62 14 -21 29 -58 34 -84 5 -25 17 -57 28 -70 11 -14 23
-39 26 -57 4 -18 18 -51 32 -75 14 -24 28 -70 33 -102 5 -33 18 -71 30 -87 12
-17 25 -55 30 -92 5 -35 15 -70 23 -80 21 -23 29 -88 29 -231 1 -141 -6 -190
-33 -234 -11 -17 -19 -47 -19 -66 0 -19 -11 -58 -24 -87 -14 -29 -28 -73 -32
-98 -4 -32 -13 -51 -30 -61 -13 -9 -28 -32 -35 -52 -13 -40 -39 -78 -80 -121
-15 -14 -36 -44 -47 -66 -25 -49 -144 -166 -192 -190 -19 -10 -41 -26 -47 -35
-7 -10 -29 -26 -50 -37 -21 -11 -74 -39 -118 -62 -44 -24 -103 -46 -132 -51
-29 -5 -66 -19 -83 -32 -31 -23 -36 -23 -331 -26 l-300 -3 -53 31 c-31 17 -68
30 -88 30 -26 0 -41 8 -61 30 -20 22 -36 30 -61 30 -25 0 -40 7 -54 25 -11 14
-36 32 -55 40 -60 25 -104 60 -210 167 -115 116 -153 163 -169 211 -6 17 -24
44 -40 59 -15 14 -28 34 -28 44 0 10 -11 34 -25 55 -14 20 -28 54 -32 75 -3
22 -16 55 -28 74 -20 31 -25 56 -34 200 -14 197 -14 177 -2 319 8 96 15 124
39 170 18 34 31 79 35 115 4 38 14 70 27 88 12 16 24 46 27 66 3 20 16 48 29
62 13 14 28 48 33 75 6 28 32 93 59 145 27 52 55 113 62 135 7 22 21 50 31 63
10 13 23 40 30 60 6 20 20 49 31 64 10 15 24 42 30 60 6 18 19 45 29 59 10 15
37 60 59 102 22 41 51 92 65 113 14 20 25 45 25 56 0 11 13 31 29 46 16 15 32
43 36 62 4 19 17 46 30 60 12 14 28 42 35 62 6 21 15 40 20 43 5 3 31 48 59
100 28 52 60 99 70 105 11 5 25 27 31 47 7 21 18 45 25 53 6 8 32 53 58 100
25 47 57 96 71 109 14 13 28 36 31 51 3 15 15 36 27 46 11 11 28 35 39 55 14
28 68 78 86 79 2 0 14 -21 28 -47z"/>
<path d="M3231 2655 c-17 -20 -31 -39 -31 -44 0 -5 -13 -25 -30 -46 -16 -21
-30 -46 -30 -55 0 -10 -16 -37 -35 -60 -19 -23 -35 -46 -35 -51 0 -11 -100
-128 -165 -192 -26 -26 -65 -57 -86 -68 -22 -10 -39 -23 -39 -28 0 -4 -12 -14
-27 -21 -49 -24 -103 -83 -114 -123 -9 -33 -7 -41 11 -65 17 -20 29 -26 52
-23 45 4 110 35 137 65 14 14 28 26 32 26 39 0 232 166 269 231 8 15 35 54 60
86 61 79 94 131 108 173 7 19 24 44 38 55 20 16 26 30 27 68 2 43 -2 52 -31
78 -43 39 -73 37 -111 -6z"/>
</g>
</svg>
