<svg width="137" height="21" viewBox="0 0 137 21" fill="none" xmlns="http://www.w3.org/2000/svg">
<g clip-path="url(#clip0_0_3617)">
<path d="M38.1304 5.77905V6.90094H29.6986V12.5281H37.0097V13.6202H29.6986V19.5896H38.1304V20.7204H28.5307V5.77905H38.1304Z" fill="white"/>
<path d="M40.3305 5.77905L45.9576 19.2325L51.5847 5.77905H52.847L46.5003 20.7204H45.4297L39.083 5.77905H40.3305Z" fill="white"/>
<path d="M63.5972 5.77905V6.90094H55.1653V12.5281H62.4763V13.6202H55.1653V19.5896H63.5972V20.7204H53.9971V5.77905H63.5972Z" fill="white"/>
<path d="M69.7813 5.77911C71.0436 5.77319 72.1231 6.21952 73.0168 7.12123C73.9105 8.01098 74.3554 9.10007 74.3554 10.3945C74.3554 11.5521 73.9721 12.5579 73.2085 13.409C72.4417 14.2452 71.4859 14.7302 70.3357 14.8582L74.7006 20.7204H73.132L68.9408 14.8879H66.1068V20.7204H64.9391V5.77911H69.7813ZM66.1068 13.8524H69.7813C70.7255 13.8524 71.5331 13.5131 72.2027 12.8376C72.8723 12.1562 73.2085 11.3408 73.2085 10.3945C73.2085 9.43634 72.8723 8.61503 72.2027 7.93059C71.5331 7.24319 70.7255 6.901 69.7813 6.90692H66.1068V13.8524Z" fill="white"/>
<path d="M85.6393 5.77905V6.90094H77.2075V12.5281H84.5189V13.6202H77.2075V19.5896H85.6393V20.7204H76.0398V5.77905H85.6393Z" fill="white"/>
<path d="M95.3833 6.60898C96.0147 7.15654 96.4188 7.835 96.5898 8.64738L95.4895 8.96577C95.3807 8.39446 95.0918 7.9064 94.6197 7.50767C93.956 6.92737 93.0506 6.64172 91.9004 6.64764C90.8299 6.64172 89.9543 6.89765 89.2789 7.42135C88.6093 7.9183 88.2731 8.61464 88.2731 9.51629C88.2731 10.0817 88.4531 10.5757 88.81 10.9953C89.1934 11.4387 89.8624 11.8077 90.8182 12.0963L93.3251 12.87C94.7228 13.3015 95.7141 13.8907 96.3009 14.6376C96.817 15.2566 97.0762 16.0065 97.0762 16.8873C97.0825 18.2591 96.5043 19.3125 95.3451 20.0446C94.3866 20.6814 93.2396 20.9998 91.9004 20.9998C90.3701 20.9939 89.1312 20.6308 88.1876 19.9077C87.4474 19.3482 86.9812 18.6132 86.7895 17.7056L87.9105 17.4051C88.0044 18.024 88.3321 18.5508 88.8864 18.9882C89.615 19.5417 90.6175 19.8184 91.9004 19.8184C93.0092 19.8125 93.9533 19.5655 94.7227 19.0745C95.5076 18.5596 95.8995 17.8276 95.8995 16.8813C95.8995 16.2892 95.7402 15.7892 95.4221 15.3845C94.9617 14.8191 94.1477 14.3549 92.98 13.9948L90.4821 13.2211C89.3585 12.873 88.5179 12.3879 87.9545 11.763C87.4001 11.1322 87.123 10.3822 87.123 9.51333C87.123 8.23971 87.6126 7.22794 88.5885 6.48104C89.4822 5.80554 90.5851 5.46631 91.9004 5.46631C93.3278 5.46927 94.4902 5.85018 95.3833 6.60898Z" fill="white"/>
<path d="M109.434 5.77884V6.89771H104.399V20.7172H103.252V6.89771H98.2269V5.77588H109.434V5.77884Z" fill="white"/>
<path d="M7.34947 5.77905H6.30837L0 20.7174H1.28291L2.97576 16.596L3.42699 15.5039L6.83333 7.28481L10.2308 15.5039L10.6703 16.596L12.3838 20.7174H13.649L7.34947 5.77905Z" fill="white"/>
<path d="M19.4471 5.77905C21.6532 5.77905 23.4463 6.35935 24.8265 7.51694C26.4102 8.82922 27.1977 10.7426 27.1918 13.2542C27.1977 15.7509 26.4102 17.6643 24.8265 18.9915C23.4492 20.1431 21.6561 20.7204 19.4471 20.7204H14.7962V5.77905H19.4471ZM15.9346 19.5777H19.4471C21.3051 19.5777 22.8623 19.0718 24.1276 18.0601C25.3898 17.0364 26.0239 15.4325 26.0239 13.2512C26.0239 11.061 25.381 9.45712 24.0892 8.43345C22.8122 7.41576 21.2668 6.90686 19.4471 6.90686H15.9346V19.5777Z" fill="white"/>
<path d="M111.079 20.4704L118.668 4.57983L122.481 11.4092L119.037 9.29941L111.079 20.4704Z" fill="white"/>
<path d="M117.066 21L127.09 0L131.007 9.93607L127.58 6.23425L117.066 21Z" fill="white"/>
<path d="M125.598 20.4704L133.187 4.57983L137 11.4092L133.555 9.29941L125.598 20.4704Z" fill="white"/>
</g>
<defs>
<clipPath id="clip0_0_3617">
<rect width="137" height="21" fill="white"/>
</clipPath>
</defs>
</svg>
