<svg width="109" height="24" viewBox="0 0 109 24" fill="none" xmlns="http://www.w3.org/2000/svg">
<g clip-path="url(#clip0_0_3594)">
<path d="M40.4316 14.7966L38.6688 10.2305L36.6126 14.8158L33.6287 6.80664H35.3413L36.8029 11.2684L37.9314 8.325L37.3473 6.80664H38.7983L40.4607 11.0899L41.7214 6.80664H43.2939L40.4316 14.7966Z" fill="white"/>
<path d="M49.6317 6.75439V8.22059H46.0347V9.86525H49.2194V11.3314H46.0347V12.9953H49.7744V14.4615H44.5731V6.75439H49.6317Z" fill="white"/>
<path d="M56.017 11.1365C56.2364 11.4413 56.3448 11.79 56.3448 12.1881C56.3448 12.9706 56.099 13.5445 55.6048 13.9096C55.1105 14.2748 54.4947 14.4588 53.7547 14.4588H51.2862V6.75439H53.464C54.2489 6.75439 54.8674 6.91914 55.3193 7.25136C55.7686 7.58359 55.9933 8.06408 55.9933 8.6901C55.9933 9.0745 55.9166 9.41221 55.7607 9.70051C55.6048 9.99155 55.388 10.2222 55.1052 10.3979C55.4937 10.5874 55.7977 10.8317 56.017 11.1365ZM52.7477 9.90644H53.6358C53.9053 9.90644 54.1115 9.82132 54.2595 9.65109C54.4075 9.48086 54.4815 9.26944 54.4815 9.01684C54.4815 8.76423 54.3969 8.56105 54.2304 8.42651C54.0613 8.28923 53.8313 8.22333 53.5353 8.22333H52.7504V9.90918L52.7477 9.90644ZM54.5159 12.8333C54.7273 12.6906 54.833 12.4764 54.833 12.1881C54.833 11.6445 54.4154 11.3726 53.5829 11.3726H52.7451V13.0475H53.6833C54.0269 13.0475 54.3044 12.9761 54.5159 12.8333Z" fill="white"/>
<path d="M62.6191 14.3051C62.2095 14.4644 61.7628 14.5467 61.2791 14.5467C60.5074 14.5467 59.8335 14.3738 59.2626 14.0223C58.6917 13.6736 58.2556 13.2041 57.9517 12.6138C57.6504 12.0235 57.4971 11.3755 57.4971 10.6726C57.4971 9.89829 57.6477 9.20638 57.9517 8.59959C58.253 7.99279 58.6785 7.52053 59.2203 7.18007C59.7647 6.84235 60.3938 6.67212 61.1047 6.67212C61.554 6.67212 61.9716 6.73527 62.3548 6.86157C62.738 6.98787 63.0737 7.14438 63.3618 7.33383L62.7883 8.76707C62.257 8.34698 61.7126 8.13831 61.1549 8.13831C60.7796 8.13831 60.4255 8.24539 60.0977 8.4623C59.7674 8.67921 59.5057 8.973 59.3128 9.34641C59.1172 9.71983 59.0194 10.1344 59.0194 10.5875C59.0194 11.0844 59.1093 11.5182 59.2917 11.8917C59.474 12.2651 59.7304 12.5561 60.0687 12.7648C60.4043 12.9735 60.7981 13.0778 61.2474 13.0778C61.6095 13.0778 61.9372 13.0174 62.2253 12.8938C62.5134 12.773 62.7433 12.6275 62.9098 12.46L63.5151 13.8219C63.3274 13.9811 63.0288 14.1431 62.6191 14.3024V14.3051Z" fill="white"/>
<path d="M68.978 14.4615L67.416 12.0124H66.4381V14.4615H64.9766V6.75439H67.2231C68.1428 6.75439 68.8564 6.98778 69.3639 7.4518C69.8713 7.91582 70.125 8.55007 70.125 9.35181C70.125 9.82681 70.0299 10.2716 69.8369 10.6862C69.6467 11.1008 69.3506 11.4275 68.9542 11.6664L70.6774 14.4615H68.9754H68.978ZM66.4381 10.5462H67.4768C67.8732 10.5462 68.1613 10.4254 68.3437 10.1838C68.5261 9.94213 68.6159 9.68404 68.6159 9.40398C68.6159 9.12392 68.5393 8.85759 68.3833 8.60224C68.23 8.34689 67.9288 8.22059 67.4874 8.22059H66.4381V10.5462Z" fill="white"/>
<path d="M75.5589 12.9542H73.101L72.4958 14.4615H71.0554L74.4013 6.45239H74.4806L77.8266 14.4615H76.1324L75.5589 12.9542ZM75.0753 11.6774L74.359 9.80212L73.6137 11.6774H75.0753Z" fill="white"/>
<path d="M83.5406 6.75439V8.22059H80.3664V9.96959H83.1177V11.4358H80.3664V14.4615H78.9049V6.75439H83.5406Z" fill="white"/>
<path d="M89.4476 6.75439V8.22059H87.6424V14.4615H86.1809V8.22059H84.4471V6.75439H89.4449H89.4476Z" fill="white"/>
<path d="M95.9175 6.75439V8.22059H92.3204V9.86525H95.5052V11.3314H92.3204V12.9953H96.0602V14.4615H90.8589V6.75439H95.9175Z" fill="white"/>
<path d="M101.571 14.4615L100.009 12.0124H99.0308V14.4615H97.5693V6.75439H99.8158C100.736 6.75439 101.449 6.98778 101.957 7.4518C102.464 7.91582 102.718 8.55007 102.718 9.35181C102.718 9.82681 102.623 10.2716 102.43 10.6862C102.239 11.1008 101.943 11.4275 101.547 11.6664L103.27 14.4615H101.565H101.571ZM99.0308 10.5462H100.07C100.466 10.5462 100.754 10.4254 100.936 10.1838C101.119 9.94213 101.209 9.68404 101.209 9.40398C101.209 9.12392 101.132 8.85759 100.976 8.60224C100.823 8.34689 100.521 8.22059 100.08 8.22059H99.0308V10.5462Z" fill="white"/>
<path d="M106.761 8.06419C106.439 8.06419 106.188 8.13009 106.011 8.26188C105.834 8.39368 105.744 8.59411 105.744 8.8577C105.744 9.10206 105.873 9.31622 106.132 9.50293C106.391 9.68689 106.735 9.86536 107.166 10.0328C107.515 10.1646 107.813 10.3184 108.062 10.4886C108.31 10.6589 108.516 10.895 108.683 11.1943C108.847 11.4935 108.929 11.8752 108.929 12.3365C108.929 12.7346 108.828 13.1025 108.633 13.4402C108.434 13.778 108.144 14.047 107.76 14.2475C107.377 14.4452 106.92 14.5467 106.389 14.5467C105.945 14.5467 105.506 14.4781 105.067 14.3436C104.629 14.209 104.224 14.0004 103.849 13.7203L104.494 12.5369C104.75 12.7319 105.041 12.8938 105.371 13.0174C105.702 13.1437 105.995 13.2069 106.259 13.2069C106.568 13.2069 106.838 13.1382 107.065 13.0037C107.293 12.8664 107.409 12.6467 107.409 12.3392C107.409 11.9411 107.05 11.5951 106.331 11.3014C105.908 11.1284 105.554 10.9581 105.273 10.7989C104.991 10.6396 104.748 10.409 104.544 10.107C104.338 9.8077 104.237 9.4288 104.237 8.97576C104.237 8.3113 104.446 7.77864 104.866 7.37503C105.287 6.97141 105.847 6.75176 106.545 6.71606C107.094 6.71606 107.557 6.78196 107.924 6.91101C108.294 7.04006 108.654 7.22402 109.003 7.46014L108.448 8.62157C107.803 8.2509 107.242 8.06694 106.764 8.06694L106.761 8.06419Z" fill="white"/>
<path d="M35.6479 20.1451C35.4761 20.0929 35.3149 20.0654 35.1643 20.0654C34.9343 20.0654 34.752 20.1204 34.6198 20.2247C34.485 20.3318 34.419 20.4773 34.419 20.664C34.419 20.8507 34.4982 20.9935 34.6542 21.1088C34.8101 21.2241 35.0374 21.3394 35.3281 21.452C35.5449 21.5316 35.7299 21.6195 35.8805 21.7156C36.0312 21.8117 36.1554 21.9407 36.2532 22.1082C36.3536 22.2757 36.4012 22.4899 36.4012 22.748C36.4012 22.9814 36.3457 23.1955 36.232 23.385C36.1184 23.5744 35.9598 23.7254 35.751 23.8325C35.5422 23.9423 35.2991 23.9973 35.0189 23.9973C34.7573 23.9973 34.5062 23.9533 34.2657 23.8682C34.0252 23.7803 33.8137 23.6705 33.6287 23.5387L33.8798 23.072C34.0225 23.1845 34.197 23.2806 34.3978 23.3603C34.5987 23.4399 34.789 23.4783 34.9634 23.4783C35.1881 23.4783 35.3863 23.4179 35.5554 23.2971C35.7246 23.1763 35.8091 22.9951 35.8091 22.7562C35.8091 22.553 35.7378 22.3938 35.5951 22.2757C35.4523 22.1576 35.2541 22.0451 34.9978 21.938C34.7599 21.8446 34.5643 21.754 34.4057 21.6662C34.2472 21.5783 34.1124 21.4548 34.0014 21.2983C33.8877 21.1417 33.8322 20.9468 33.8322 20.7134C33.8322 20.3702 33.9485 20.0929 34.1785 19.8787C34.411 19.6673 34.7097 19.5547 35.0797 19.541C35.5343 19.541 35.9572 19.6591 36.3457 19.8925L36.1289 20.3482C35.9783 20.2631 35.8171 20.1945 35.6453 20.1423L35.6479 20.1451Z" fill="white"/>
<path d="M42.1416 19.5684V20.1312H41.0105V23.9505H40.4449V20.1312H39.3428V19.5684H42.1443H42.1416Z" fill="white"/>
<path d="M46.0268 22.9236C46.1166 23.0801 46.2382 23.2036 46.3915 23.2942C46.5448 23.3849 46.7166 23.4315 46.9016 23.4315C47.0866 23.4315 47.2716 23.3876 47.4302 23.297C47.5887 23.2064 47.7103 23.0856 47.8002 22.9263C47.89 22.7671 47.935 22.5941 47.935 22.3992V19.5684H48.49V22.4184C48.49 22.7286 48.4213 23.006 48.2812 23.2448C48.1411 23.4864 47.9508 23.6704 47.7103 23.8022C47.4698 23.934 47.2002 23.9999 46.9042 23.9999C46.6082 23.9999 46.3466 23.934 46.106 23.8022C45.8655 23.6704 45.6752 23.4837 45.5378 23.2448C45.4004 23.0032 45.3317 22.7286 45.3317 22.4184V19.5684H45.8973V22.3992C45.8973 22.5941 45.9422 22.7671 46.032 22.9236H46.0268Z" fill="white"/>
<path d="M51.9839 19.5684H53.1389C53.6648 19.5684 54.0983 19.6754 54.4418 19.8923C54.7854 20.1093 55.0365 20.3866 55.1951 20.7298C55.3537 21.0702 55.4303 21.4327 55.4303 21.8116C55.4303 22.2372 55.3352 22.6106 55.1449 22.9373C54.9546 23.264 54.6982 23.5139 54.3811 23.6896C54.0613 23.8654 53.715 23.9532 53.3424 23.9532H51.9839V19.5711V19.5684ZM53.2314 23.3821C53.5433 23.3821 53.8208 23.319 54.0666 23.1899C54.3123 23.0636 54.5026 22.8769 54.6427 22.6353C54.7801 22.3937 54.8489 22.1026 54.8489 21.7677C54.8489 21.4327 54.7775 21.1279 54.6321 20.8835C54.4894 20.6364 54.2965 20.4497 54.0586 20.3234C53.8181 20.1971 53.5617 20.1312 53.2842 20.1312H52.5495V23.3794H53.2314V23.3821Z" fill="white"/>
<path d="M59.2837 19.5684V23.9505H58.7181V19.5684H59.2837Z" fill="white"/>
<path d="M62.8596 20.6475C63.0552 20.3042 63.3168 20.0297 63.6446 19.8265C63.9723 19.6233 64.3317 19.5217 64.7202 19.5217C65.1088 19.5217 65.4629 19.6233 65.7933 19.8265C66.1236 20.0297 66.3879 20.3042 66.5835 20.6475C66.7791 20.9907 66.8795 21.3641 66.8795 21.7622C66.8795 22.1603 66.7817 22.5392 66.5888 22.8824C66.3932 23.2257 66.1316 23.4975 65.7986 23.6979C65.4656 23.8983 65.1061 23.9972 64.7229 23.9972C64.3397 23.9972 63.9749 23.8983 63.6446 23.7007C63.3142 23.503 63.0525 23.2339 62.8596 22.8907C62.6667 22.5502 62.5715 22.1713 62.5715 21.7595C62.5715 21.3476 62.6693 20.9879 62.8623 20.6447L62.8596 20.6475ZM63.3618 22.5996C63.5018 22.855 63.6921 23.0554 63.9353 23.2064C64.1784 23.3547 64.4427 23.4316 64.7308 23.4316C65.0189 23.4316 65.2832 23.3574 65.5211 23.2092C65.7589 23.0609 65.9492 22.8605 66.0866 22.6024C66.2241 22.3443 66.2928 22.067 66.2928 21.7622C66.2928 21.4574 66.2241 21.1774 66.0814 20.9193C65.9413 20.6612 65.751 20.4553 65.5105 20.307C65.27 20.1587 65.0057 20.0818 64.7176 20.0818C64.4295 20.0818 64.1652 20.1587 63.9247 20.3097C63.6842 20.4608 63.4939 20.6667 63.3565 20.9248C63.2191 21.1829 63.1503 21.4657 63.1503 21.7677C63.1503 22.0697 63.2191 22.3443 63.3591 22.5996H63.3618Z" fill="white"/>
<path d="M24.1934 4.67593L26.0276 0.867666C26.1228 0.667231 26.4056 0.664486 26.5034 0.867666L29.2097 6.44964C29.2467 6.52652 29.4555 6.92738 29.4212 7.00426L26.6064 12.1881C26.5113 12.3885 26.21 12.416 26.1096 12.2128L24.2384 8.33592C23.686 7.19372 23.6516 5.80715 24.1934 4.67318V4.67593Z" fill="white"/>
<path d="M0.420299 3.89621L2.22542 0.15385C2.32321 -0.0493303 2.60336 -0.0493303 2.70115 0.15385L11.4546 18.2012C11.4942 18.2808 11.4916 18.3742 11.4546 18.4538L8.74026 23.8518C8.63983 24.0523 8.36497 24.0495 8.26718 23.8463L0.422942 7.59739C-0.140004 6.43322 -0.140004 5.06038 0.422942 3.89621H0.420299Z" fill="white"/>
<path d="M12.2738 3.89621L14.0763 0.15385C14.1741 -0.0493303 14.4542 -0.0493303 14.552 0.15385L23.3054 18.2012C23.3451 18.2808 23.3424 18.3742 23.3054 18.4538L20.5911 23.8518C20.4907 24.0523 20.2158 24.0495 20.118 23.8463L12.2738 7.59739C11.7109 6.43322 11.7109 5.06038 12.2738 3.89621Z" fill="white"/>
</g>
<defs>
<clipPath id="clip0_0_3594">
<rect width="109" height="24" fill="white"/>
</clipPath>
</defs>
</svg>
